<svg xmlns="http://www.w3.org/2000/svg" viewBox="0 0 128 128" role="img" aria-label="NoteFlow">
  <rect width="128" height="128" rx="28" fill="#0d1117"/>
  <path d="M36 28h46l18 18v54a10 10 0 0 1-10 10H36a10 10 0 0 1-10-10V38a10 10 0 0 1 10-10z" fill="#f8fafc"/>
  <path d="M82 28v18h18" fill="#cfe6ff"/>
  <path d="M43 56h42M43 70h36M43 84h28" stroke="#58a6ff" stroke-width="7" stroke-linecap="round"/>
  <path d="M31 28l5 10 10 5-10 5-5 10-5-10-10-5 10-5z" fill="#58a6ff"/>
  <circle cx="94" cy="92" r="18" fill="#16a34a"/>
  <path d="M85 91l7 7 13-16" fill="none" stroke="#fff" stroke-width="7" stroke-linecap="round" stroke-linejoin="round"/>
</svg>
